# xmcd CD database file
#
# Track frame offsets:
#	150
#	14120
#	29818
#	45388
#	61338
#	80905
#	94998
#	116957
#	132952
#	142950
#	159304
#	183044
#
# Disc length: 2621 seconds
#
# Revision: 0
# Processed by: cddbd v1.5.2PL0 Copyright (c) Steve Scherf et al.
# Submitted via: CDex 1.51
#
DISCID=a80a3b0c
DTITLE=Sonny Rhodes - Born To Be Blue
DYEAR=1900
DGENRE=Blues
TTITLE0=Born To Be Blue
TTITLE1=End Of My Hope
TTITLE2=Hide That Wine
TTITLE3=It's Not Funny Any More
TTITLE4=All Cried Out
TTITLE5=I'd Rather Be Hot Than Cool
TTITLE6=Sonny Rhodes - Five-Day Rain
TTITLE7=Can't Get Enough
TTITLE8=Satan
TTITLE9=She's My Woman
TTITLE10=Love Don't Get Old
TTITLE11=If I Had The Chance
EXTD=
EXTT0=
EXTT1=
EXTT2=
EXTT3=
EXTT4=
EXTT5=
EXTT6=
EXTT7=
EXTT8=
EXTT9=
EXTT10=
EXTT11=
PLAYORDER=
